<svg xmlns="http://www.w3.org/2000/svg" width="56.331" height="43.972" viewBox="0 0 56.331 43.972">
  <g id="books-stack-of-three" transform="translate(0.001 -36.758)">
    <g id="Group_54" data-name="Group 54" transform="translate(-0.001 36.758)">
      <path id="Path_208" data-name="Path 208" d="M52.312,50.042c-.228-1.712-.26-4.662,1.331-5.652a.6.6,0,0,0,.074-.067c1.3-.416,2.2-1,1.494-1.785l-19.182-5.78L4.969,41.076s-3.557.508-3.239,6.034C1.9,50.118,2.846,51.6,3.671,52.322l-2.549.768c-.707.785.192,1.369,1.493,1.785a.514.514,0,0,0,.074.067c1.59.991,1.559,3.94,1.33,5.653-5.71,1.621-3.661,2.15-3.661,2.15l1.253.3c-.881.8-1.756,2.306-1.592,5.169.318,5.525,3.239,5.906,3.239,5.906L23.584,80.73,54.263,73.3s2.05-.529-3.661-2.151c-.23-1.71-.262-4.659,1.332-5.652a.469.469,0,0,0,.074-.067c1.3-.416,2.2-1,1.493-1.785l-1.333-.4c.889-.536,2.225-1.938,2.434-5.579.144-2.5-.509-3.971-1.265-4.834l2.636-.638S58.023,51.663,52.312,50.042Zm-25.661-.071,5.159-1.06,17.435-3.583,2.6-.534a8.994,8.994,0,0,0-.658,4.934c.03.3.065.578.1.788l-2.843.707L26.434,56.7ZM4.49,55.348l2.6.534,16.744,3.442,1.463.3h0l4.387.9.216,6.726L7.279,61.625,5.05,61.07c.033-.21.067-.486.1-.789A9,9,0,0,0,4.49,55.348Zm-1.009-8.5a4.362,4.362,0,0,1,.76-3.073,1.38,1.38,0,0,1,1.007-.417,1.708,1.708,0,0,1,.255.02l13.383,4.363,6.677,2.177-.219,6.773L6.612,51.436l-.989-.277A.6.6,0,0,0,5.5,51.14C5.423,51.135,3.571,50.964,3.481,46.845ZM23.633,77.8,3.913,72.267a.586.586,0,0,0-.123-.02c-.079-.005-1.931-.176-2.021-4.294a4.366,4.366,0,0,1,.76-3.074,1.383,1.383,0,0,1,1.008-.417,1.78,1.78,0,0,1,.255.019h0L23.85,71.023Zm25.84-6.961c.031.3.066.579.1.789L24.723,77.805l.217-6.726,5.313-1.092.785.19,2.941-.956,13.555-2.785,2.6-.535A8.985,8.985,0,0,0,49.473,70.835Zm1.369-9.141a.477.477,0,0,0-.133.021l-1.874.525-17.845,5-.218-6.773,5.855-1.91L50.8,53.937a1.477,1.477,0,0,1,1.292.389,4.368,4.368,0,0,1,.76,3.073C52.762,61.517,50.909,61.688,50.841,61.694Z" transform="translate(0.001 -36.758)"/>
    </g>
  </g>
</svg>
