<svg xmlns="http://www.w3.org/2000/svg" width="21.221" height="18.88" viewBox="0 0 21.221 18.88">
  <path id="heart" d="M19.538,1.848A5.706,5.706,0,0,0,15.293,0a5.339,5.339,0,0,0-3.334,1.151,6.822,6.822,0,0,0-1.348,1.408A6.818,6.818,0,0,0,9.262,1.151,5.338,5.338,0,0,0,5.928,0,5.707,5.707,0,0,0,1.683,1.848,6.633,6.633,0,0,0,0,6.378a7.9,7.9,0,0,0,2.1,5.17,44.879,44.879,0,0,0,5.269,4.945c.73.622,1.558,1.327,2.417,2.079a1.246,1.246,0,0,0,1.64,0c.859-.751,1.687-1.457,2.418-2.08a44.859,44.859,0,0,0,5.268-4.945,7.9,7.9,0,0,0,2.1-5.17A6.633,6.633,0,0,0,19.538,1.848Zm0,0"/>
</svg>
