<svg xmlns="http://www.w3.org/2000/svg" width="39.429" height="47.891" viewBox="0 0 39.429 47.891">
  <g id="paper" transform="translate(-45.699 0.5)">
    <path id="Path_218" data-name="Path 218" d="M84.628,43.089V.687A.687.687,0,0,0,83.941,0H50.78a.687.687,0,0,0-.687.687V3.115H46.886A.687.687,0,0,0,46.2,3.8v6a.687.687,0,0,0,1.374,0V4.489h2.521V31.256a7.8,7.8,0,0,0,6.451,7.7L79.36,42.979v2.538H47.573V13.7a.687.687,0,0,0-1.374,0V46.2a.687.687,0,0,0,.687.687H80.046a.687.687,0,0,0,.687-.687V43.221l3.088.544A.689.689,0,0,0,84.628,43.089ZM51.467,31.256V1.374H83.254V41.866L69.6,33.548a.687.687,0,0,0-.715,1.173L80.473,41.78l-20.451-3.6c2.332-1.355,3.271-4.187,3.49-6.731l2.257,1.375a.687.687,0,0,0,.715-1.173l-3.257-1.985q-.885-.317-1.044.61c.117,3.608-2.417,7.827-5.4,7.332A6.4,6.4,0,0,1,51.467,31.256Z" transform="translate(0)" stroke="#000" stroke-width="1"/>
    <path id="Path_219" data-name="Path 219" d="M156.031,77.345H177a.687.687,0,0,0,0-1.374H156.031A.687.687,0,0,0,156.031,77.345Z" transform="translate(-99.154 -69.013)" stroke="#000" stroke-width="1"/>
    <path id="Path_220" data-name="Path 220" d="M156.031,123.588H177a.687.687,0,0,0,0-1.374H156.031A.687.687,0,0,0,156.031,123.588Z" transform="translate(-99.154 -111.021)" stroke="#000" stroke-width="1"/>
    <path id="Path_221" data-name="Path 221" d="M156.031,169.832H177a.687.687,0,0,0,0-1.374H156.031A.687.687,0,0,0,156.031,169.832Z" transform="translate(-99.154 -153.03)" stroke="#000" stroke-width="1"/>
    <path id="Path_222" data-name="Path 222" d="M156.031,216.075H177a.687.687,0,0,0,0-1.374H156.031A.687.687,0,0,0,156.031,216.075Z" transform="translate(-99.154 -195.038)" stroke="#000" stroke-width="1"/>
  </g>
</svg>
