<svg xmlns="http://www.w3.org/2000/svg" width="44.474" height="44.507" viewBox="0 0 44.474 44.507">
  <path id="pen_1_" data-name="pen (1)" d="M42.69,36.632a11.915,11.915,0,0,0-2.943-4.876L11.087,3.1a1.079,1.079,0,0,0-1.526,0l-.16.16L7.137.963a3.237,3.237,0,0,0-4.608,0L1.2,2.31a3.245,3.245,0,0,0,.016,4.562L3.493,9.15l-.838.829a5.395,5.395,0,0,0-.022,7.65l8.635,8.634a1.079,1.079,0,1,0,1.526-1.526L4.16,16.1a3.235,3.235,0,0,1-.072-4.5L17,24.516l2.359,2.359L20.889,28.4,32,39.507a11.913,11.913,0,0,0,4.876,2.944l6.476,2.008a1.079,1.079,0,0,0,1.35-1.35ZM2.736,3.826,4.065,2.479a1.08,1.08,0,0,1,1.537,0l2.274,2.3L5.028,7.632,2.742,5.346A1.082,1.082,0,0,1,2.736,3.826Zm2.889,6.26,4.7-4.7,11.45,11.45-4.7,4.7ZM18.6,23.061l4.7-4.7,2.289,2.289-4.7,4.7Zm3.814,3.814,4.7-4.7L38.221,33.282q.168.169.327.346l-4.681,4.681c-.118-.107-.233-.216-.345-.327Zm15.1,13.514a9.707,9.707,0,0,1-1.869-.8L39.824,35.4a9.7,9.7,0,0,1,.8,1.869l1.4,4.519Zm0,0" transform="translate(-0.271)"/>
</svg>
