<svg xmlns="http://www.w3.org/2000/svg" width="40.5" height="47.699" viewBox="0 0 40.5 47.699">
  <g id="shopping-bag" transform="translate(-15.108 0.25)">
    <g id="Group_56" data-name="Group 56" transform="translate(29.71)">
      <g id="Group_55" data-name="Group 55">
        <path id="Path_209" data-name="Path 209" d="M88.972,5.832a6.8,6.8,0,0,0-12.225-3.04.8.8,0,1,0,1.291.944,5.2,5.2,0,0,1,9.35,2.322.8.8,0,0,0,.791.687.857.857,0,0,0,.114-.008A.8.8,0,0,0,88.972,5.832Z" transform="translate(-76.593)" stroke="#000" stroke-width="0.5"/>
      </g>
    </g>
    <g id="Group_58" data-name="Group 58" transform="translate(16.958 10.399)">
      <g id="Group_57" data-name="Group 57" transform="translate(0)">
        <path id="Path_210" data-name="Path 210" d="M58.87,48.76l-2.4-4a.8.8,0,0,0-.686-.388h-2.3a.8.8,0,0,0,0,1.6h1.847l1.44,2.4H24.4l1.44-2.4h.847a.8.8,0,1,0,0-1.6h-1.3a.8.8,0,0,0-.686.388l-2.4,4a.8.8,0,0,0,.686,1.212h35.2a.8.8,0,0,0,.686-1.212Z" transform="translate(-22.185 -44.372)" stroke="#000" stroke-width="0.5"/>
      </g>
    </g>
    <g id="Group_60" data-name="Group 60" transform="translate(36.448 4.483)">
      <g id="Group_59" data-name="Group 59" transform="translate(0)">
        <path id="Path_211" data-name="Path 211" d="M118.551,22.055a.8.8,0,0,0-.5-.357l-10.905-2.551a.8.8,0,0,0-.961.6l-.822,3.516a.8.8,0,0,0,1.558.364l.64-2.736,9.347,2.186-1.469,6.28a.8.8,0,0,0,.6.961.809.809,0,0,0,.183.021.8.8,0,0,0,.778-.618l1.651-7.059A.8.8,0,0,0,118.551,22.055Z" transform="translate(-105.343 -19.126)" stroke="#000" stroke-width="0.5"/>
      </g>
    </g>
    <g id="Group_62" data-name="Group 62" transform="translate(20.078 2.431)">
      <g id="Group_61" data-name="Group 61" transform="translate(0)">
        <path id="Path_212" data-name="Path 212" d="M51.2,17.245l-.729-6.165a.8.8,0,0,0-.888-.7L36.2,11.961a.8.8,0,0,0-.7.888l1.215,10.283a.8.8,0,0,0,.794.706.874.874,0,0,0,.1-.006.8.8,0,0,0,.7-.888l-1.121-9.489,11.791-1.394.635,5.371a.8.8,0,0,0,1.589-.187Z" transform="translate(-35.494 -10.374)" stroke="#000" stroke-width="0.5"/>
      </g>
    </g>
    <g id="Group_64" data-name="Group 64" transform="translate(26.055 7.68)">
      <g id="Group_63" data-name="Group 63" transform="translate(0)">
        <path id="Path_213" data-name="Path 213" d="M77.05,39.985l-1.588-6.6a.8.8,0,0,0-.965-.59l-12.887,3.1a.8.8,0,0,0-.591.965l.794,3.3a.8.8,0,1,0,1.556-.374l-.607-2.523,11.332-2.725,1.4,5.825a.8.8,0,0,0,1.556-.375Z" transform="translate(-60.997 -32.769)" stroke="#000" stroke-width="0.5"/>
      </g>
    </g>
    <g id="Group_66" data-name="Group 66" transform="translate(15.359 14.4)">
      <g id="Group_65" data-name="Group 65" transform="translate(0)">
        <path id="Path_214" data-name="Path 214" d="M53.757,62.2a.8.8,0,0,0-.8-.759h-35.2a.8.8,0,0,0-.8.759l-1.6,31.2a.8.8,0,0,0,.8.841h38.4a.8.8,0,0,0,.8-.841ZM17,92.64l1.518-29.6H52.2l1.518,29.6Z" transform="translate(-15.359 -61.441)" stroke="#000" stroke-width="0.5"/>
      </g>
    </g>
    <g id="Group_68" data-name="Group 68" transform="translate(38.958 17.6)">
      <g id="Group_67" data-name="Group 67" transform="translate(0)">
        <path id="Path_215" data-name="Path 215" d="M118.452,75.093a2.4,2.4,0,1,0,2.4,2.4A2.4,2.4,0,0,0,118.452,75.093Zm0,3.2a.8.8,0,1,1,.8-.8A.8.8,0,0,1,118.452,78.293Z" transform="translate(-116.052 -75.093)" stroke="#000" stroke-width="0.5"/>
      </g>
    </g>
    <g id="Group_70" data-name="Group 70" transform="translate(26.958 17.6)">
      <g id="Group_69" data-name="Group 69" transform="translate(0)">
        <path id="Path_216" data-name="Path 216" d="M67.252,75.093a2.4,2.4,0,1,0,2.4,2.4A2.4,2.4,0,0,0,67.252,75.093Zm0,3.2a.8.8,0,1,1,.8-.8A.8.8,0,0,1,67.252,78.293Z" transform="translate(-64.852 -75.093)" stroke="#000" stroke-width="0.5"/>
      </g>
    </g>
    <g id="Group_72" data-name="Group 72" transform="translate(28.558 20)">
      <g id="Group_71" data-name="Group 71">
        <path id="Path_217" data-name="Path 217" d="M84.479,85.333h-.062a.8.8,0,0,0-.8.8.791.791,0,0,0,.062.308v4.091a5.2,5.2,0,1,1-10.4,0v-4.4a.8.8,0,0,0-1.6,0v4.4a6.8,6.8,0,1,0,13.6,0v-4.4A.8.8,0,0,0,84.479,85.333Z" transform="translate(-71.679 -85.333)" stroke="#000" stroke-width="0.5"/>
      </g>
    </g>
  </g>
</svg>
