<svg xmlns="http://www.w3.org/2000/svg" width="68.332" height="68.332" viewBox="0 0 68.332 68.332">
  <g id="stationery_store-stationery-pen-pencil-ruler" data-name="stationery store-stationery-pen-pencil-ruler" transform="translate(-1.5 -1.5)">
    <path id="Path_203" data-name="Path 203" d="M47.367,43.611h2.244V39.122A1.122,1.122,0,0,0,48.489,38H44v2.244h3.367Z" transform="translate(5.132 4.399)" stroke="#000" stroke-width="1"/>
    <rect id="Rectangle_75" data-name="Rectangle 75" width="2" height="2" transform="translate(24.666 52.666)" stroke="#000" stroke-width="1"/>
    <path id="Path_204" data-name="Path 204" d="M65.965,62.6H63.721V35.554a5.63,5.63,0,0,0,4.489-5.5A.741.741,0,0,0,68.2,29.9L66.223,16.117a3.367,3.367,0,0,0-3.322-2.9H54.743V5.367A3.377,3.377,0,0,0,51.376,2H19.955a3.377,3.377,0,0,0-3.367,3.367v7.855H8.43a3.367,3.367,0,0,0-3.322,2.9L3.133,29.9a.741.741,0,0,0-.011.157,5.63,5.63,0,0,0,4.489,5.5V62.6H5.367a3.367,3.367,0,0,0,0,6.733h60.6a3.367,3.367,0,1,0,0-6.733ZM59.232,15.466H62.9a1.132,1.132,0,0,1,1.111.965l1.953,13.7a3.367,3.367,0,1,1-6.733-.079Zm-4.489,10.1v-10.1h2.244V30.055a3.367,3.367,0,0,1-6.733,0V28.933h1.122a3.377,3.377,0,0,0,3.367-3.367Zm-35.91-20.2a1.122,1.122,0,0,1,1.122-1.122H51.376A1.122,1.122,0,0,1,52.5,5.367v20.2a1.122,1.122,0,0,1-1.122,1.122H19.955a1.122,1.122,0,0,1-1.122-1.122ZM48.01,28.933v1.122a3.367,3.367,0,1,1-6.733,0V28.933Zm-8.978,0v1.122a3.367,3.367,0,0,1-6.733,0V28.933Zm-8.978,0v1.122a3.367,3.367,0,0,1-6.733,0V28.933ZM14.344,15.466h2.244v10.1a3.377,3.377,0,0,0,3.367,3.367h1.122v1.122a3.367,3.367,0,0,1-6.733,0ZM13.222,33.421a5.611,5.611,0,0,0,8.978,0,5.611,5.611,0,0,0,8.978,0,5.611,5.611,0,0,0,8.978,0,5.611,5.611,0,0,0,8.978,0,5.611,5.611,0,0,0,8.978,0,5.6,5.6,0,0,0,3.367,2.121V62.6H30.055V46.888a8.978,8.978,0,0,0-17.955,0V62.6H9.855V35.542a5.6,5.6,0,0,0,3.367-2.121ZM27.81,46.888V62.6H14.344V46.888a6.733,6.733,0,0,1,13.466,0ZM5.367,30.133l1.953-13.7a1.132,1.132,0,0,1,1.111-.965H12.1V30.055a3.367,3.367,0,0,1-6.733.079Zm60.6,36.954H5.367a1.122,1.122,0,0,1,0-2.244h60.6a1.122,1.122,0,0,1,0,2.244Z" transform="translate(0 0)" stroke="#000" stroke-width="1"/>
    <path id="Path_205" data-name="Path 205" d="M44.811,6H26.856a1.33,1.33,0,0,0-.359.056L19.764,8.3a1.122,1.122,0,0,0,0,2.132L26.5,12.677a1.33,1.33,0,0,0,.359.056H44.811a3.367,3.367,0,1,0,0-6.733Zm-4.489,4.489H27.036L23.669,9.367l3.367-1.122H40.323Zm4.489,0H42.567V8.244h2.244a1.122,1.122,0,0,1,0,2.244Z" transform="translate(2.076 0.489)" stroke="#000" stroke-width="1"/>
    <path id="Path_206" data-name="Path 206" d="M47.055,14H20.122A1.122,1.122,0,0,0,19,15.122v6.733a1.122,1.122,0,0,0,1.122,1.122H47.055a1.122,1.122,0,0,0,1.122-1.122V15.122A1.122,1.122,0,0,0,47.055,14Zm-1.122,6.733H21.244V16.244h2.244v3.367h2.244V16.244h2.244v3.367h2.244V16.244h2.244v3.367h2.244V16.244h2.244v3.367H39.2V16.244h2.244v3.367h2.244V16.244h2.244Z" transform="translate(2.077 1.466)" stroke="#000" stroke-width="1"/>
    <path id="Path_207" data-name="Path 207" d="M52.322,34H34.367A3.377,3.377,0,0,0,31,37.367V53.077a3.377,3.377,0,0,0,3.367,3.367H52.322a3.377,3.377,0,0,0,3.367-3.367V37.367A3.377,3.377,0,0,0,52.322,34Zm1.122,19.077A1.122,1.122,0,0,1,52.322,54.2H34.367a1.122,1.122,0,0,1-1.122-1.122V37.367a1.122,1.122,0,0,1,1.122-1.122H52.322a1.122,1.122,0,0,1,1.122,1.122Z" transform="translate(3.544 3.91)" stroke="#000" stroke-width="1"/>
  </g>
</svg>
